<svg
    xmlns="http://www.w3.org/2000/svg"
    width="51"
    height="48"
    viewBox="0 0 51 48"
    fill="none"
>
    <path
        d="M25.833 8.05957C33.0098 15.3181 39.8545 22.1356 46.5304 29.1218C47.467 30.102 47.8699 31.8662 47.9788 33.3092C48.1803 36.0046 48.1095 38.7327 47.9353 41.4335C47.6684 45.6373 45.4032 47.9079 41.2866 47.9406C30.8263 48.0223 20.3714 48.0169 9.91103 47.9406C6.13746 47.9134 3.82323 45.7952 3.51829 42.0761C3.25692 38.8688 3.28959 35.6235 3.36583 32.3999C3.38761 31.4415 3.71432 30.2327 4.35686 29.5847C11.305 22.5222 18.3403 15.5414 25.833 8.05957ZM19.6744 35.6343C19.7887 44.4992 18.4329 43.8403 28.512 43.775C28.6427 43.775 28.8224 43.8186 28.8877 43.7478C29.8298 42.7785 31.447 41.8637 31.5559 40.7964C31.9099 37.355 31.8554 33.8483 31.6104 30.3906C31.545 29.4649 30.3525 28.0927 29.4323 27.8422C21.9995 25.8547 19.6417 27.7061 19.6744 35.2477C19.6744 35.3784 19.6744 35.5037 19.6744 35.6343Z"
        fill="white"
    />
    <path
        d="M25.234 4.23714C20.2842 9.39379 15.4271 14.496 10.5263 19.5492C8.37546 21.7654 6.23003 24.0089 3.87223 25.9909C3.13167 26.6171 1.72135 26.4538 0.615967 26.6553C0.741208 25.6261 0.47439 24.2158 1.05159 23.6222C8.6695 15.7647 16.3745 7.98347 24.1885 0.316552C24.7112 -0.195302 26.7423 -0.059171 27.3413 0.528917C34.981 7.99436 42.5335 15.5578 49.9663 23.2302C50.6851 23.9707 50.4564 25.6315 50.6633 26.8676C49.449 26.4756 47.9026 26.4266 47.0803 25.6261C40.595 19.3641 34.2513 12.955 27.8586 6.60038C27.2324 5.97962 26.5463 5.41331 25.234 4.23169V4.23714Z"
        fill="white"
    />
</svg>